<?xml version="1.0" standalone="no"?>
<svg width="400" height="400" viewBox="0 0 200 200" xmlns="http://www.w3.org/2000/svg">
  <path fill="#14b8a6" d="M34.2,-52.5C41.5,-41.8,42.6,-28,49,-14.5C55.4,-0.9,67.1,12.3,64.4,21.1C61.8,29.8,44.8,34,31.7,37.2C18.5,40.4,9.3,42.6,-2.4,46C-14.1,49.3,-28.3,53.8,-42.3,50.9C-56.3,48,-70.2,37.7,-69.5,25.9C-68.8,14.1,-53.6,0.8,-46.4,-13.1C-39.2,-27.1,-40,-41.7,-33.6,-52.6C-27.3,-63.5,-13.6,-70.7,-0.1,-70.6C13.5,-70.5,27,-63.1,34.2,-52.5Z" transform="translate(100 100) scale(1.3)" />
</svg>
