<?xml version="1.0"?>
<svg xmlns="http://www.w3.org/2000/svg" version="1.1" width="600px" height="600px" viewBox="0 0 200 200" style="overflow:hidden!important;">
  <defs id="SvgjsDefs1007">
    <radialGradient id="SvgjsRadialGradient2907" cx="100" cy="114" r="41" gradientUnits="userSpaceOnUse" class="svga-on-canvas-facehighlight-gradient-single-0">
      <stop id="SvgjsStop2908" stop-opacity="0.5" stop-color="#ffe4d6" offset="0"/>
      <stop id="SvgjsStop2909" stop-opacity="0" stop-color="#f0c7b1" offset="0.9"/>
    </radialGradient>
    <radialGradient id="SvgjsRadialGradient2911" cx="100" cy="54" r="37" gradientUnits="userSpaceOnUse" class="svga-on-canvas-facehighlight-gradient-single-1">
      <stop id="SvgjsStop2912" stop-opacity="0.5" stop-color="#ffe4d6" offset="0"/>
      <stop id="SvgjsStop2913" stop-opacity="0" stop-color="#f0c7b1" offset="0.9"/>
    </radialGradient>
    <radialGradient id="SvgjsRadialGradient3773" cx="-582.838" cy="-519.099" r="59.745" gradientTransform="matrix(0.0991 8.856319e-004 -0.0011 0.0991 131.1134 135.9855)" gradientUnits="userSpaceOnUse" class="svga-on-canvas-eyesiris-gradient-left-2">
      <stop id="SvgjsStop3774" stop-opacity="1" stop-color="#ffffff" offset="0"/>
      <stop id="SvgjsStop3775" stop-opacity="0" stop-color="#ffffff" offset="1"/>
    </radialGradient>
    <linearGradient id="SvgjsLinearGradient3779" x1="122.67" y1="88.268" x2="123.606" y2="87.152" gradientTransform="matrix(1 0 0 1 -52 0)" gradientUnits="userSpaceOnUse" class="svga-on-canvas-eyesiris-gradient-left-5">
      <stop id="SvgjsStop3780" stop-opacity="1" stop-color="#ffffff" offset="0"/>
      <stop id="SvgjsStop3781" stop-opacity="0" stop-color="#ffffff" offset="1"/>
    </linearGradient>
    <linearGradient id="SvgjsLinearGradient3783" x1="127.212" y1="82.296" x2="126.463" y2="83.189" gradientTransform="matrix(1 0 0 1 -52 0)" gradientUnits="userSpaceOnUse" class="svga-on-canvas-eyesiris-gradient-left-6">
      <stop id="SvgjsStop3784" stop-opacity="1" stop-color="#ffffff" offset="0"/>
      <stop id="SvgjsStop3785" stop-opacity="0" stop-color="#ffffff" offset="1"/>
    </linearGradient>
    <linearGradient id="SvgjsLinearGradient3787" x1="129.636" y1="79.822" x2="127.91" y2="81.879" gradientTransform="matrix(1 0 0 1 -52 0)" gradientUnits="userSpaceOnUse" class="svga-on-canvas-eyesiris-gradient-left-7">
      <stop id="SvgjsStop3788" stop-opacity="1" stop-color="#ffffff" offset="0"/>
      <stop id="SvgjsStop3789" stop-opacity="0" stop-color="#ffffff" offset="1"/>
    </linearGradient>
    <radialGradient id="SvgjsRadialGradient3796" cx="-582.833" cy="-519.102" r="59.747" gradientTransform="matrix(0.0991 8.856319e-004 -0.0011 0.0991 183.1126 135.9856)" gradientUnits="userSpaceOnUse" class="svga-on-canvas-eyesiris-gradient-right-2">
      <stop id="SvgjsStop3797" stop-opacity="1" stop-color="#ffffff" offset="0"/>
      <stop id="SvgjsStop3798" stop-opacity="0" stop-color="#ffffff" offset="1"/>
    </radialGradient>
    <linearGradient id="SvgjsLinearGradient3802" x1="122.67" y1="88.268" x2="123.606" y2="87.152" gradientUnits="userSpaceOnUse" class="svga-on-canvas-eyesiris-gradient-right-5">
      <stop id="SvgjsStop3803" stop-opacity="1" stop-color="#ffffff" offset="0"/>
      <stop id="SvgjsStop3804" stop-opacity="0" stop-color="#ffffff" offset="1"/>
    </linearGradient>
    <linearGradient id="SvgjsLinearGradient3806" x1="127.212" y1="82.296" x2="126.463" y2="83.189" gradientUnits="userSpaceOnUse" class="svga-on-canvas-eyesiris-gradient-right-6">
      <stop id="SvgjsStop3807" stop-opacity="1" stop-color="#ffffff" offset="0"/>
      <stop id="SvgjsStop3808" stop-opacity="0" stop-color="#ffffff" offset="1"/>
    </linearGradient>
    <linearGradient id="SvgjsLinearGradient3810" x1="129.636" y1="79.822" x2="127.91" y2="81.879" gradientUnits="userSpaceOnUse" class="svga-on-canvas-eyesiris-gradient-right-7">
      <stop id="SvgjsStop3811" stop-opacity="1" stop-color="#ffffff" offset="0"/>
      <stop id="SvgjsStop3812" stop-opacity="0" stop-color="#ffffff" offset="1"/>
    </linearGradient>
    <linearGradient id="SvgjsLinearGradient3861" x1="127.637" y1="79.822" x2="125.91" y2="81.88" gradientTransform="matrix(1 0 0 1 -50 0)" gradientUnits="userSpaceOnUse" class="svga-on-canvas-eyesiris-gradient-left-1">
      <stop id="SvgjsStop3862" stop-opacity="1" stop-color="#ffffff" offset="0"/>
      <stop id="SvgjsStop3863" stop-opacity="0" stop-color="#ffffff" offset="1"/>
    </linearGradient>
    <linearGradient id="SvgjsLinearGradient3866" x1="129.637" y1="79.823" x2="127.91" y2="81.881" gradientUnits="userSpaceOnUse" class="svga-on-canvas-eyesiris-gradient-right-1">
      <stop id="SvgjsStop3867" stop-opacity="1" stop-color="#ffffff" offset="0"/>
      <stop id="SvgjsStop3868" stop-opacity="0" stop-color="#ffffff" offset="1"/>
    </linearGradient>
    <radialGradient id="SvgjsRadialGradient4076" cx="127.199" cy="84.835" r="14" gradientTransform="matrix(-1 0 0 1 200 0)" gradientUnits="userSpaceOnUse" class="svga-on-canvas-eyesback-gradient-left-0">
      <stop id="SvgjsStop4077" stop-opacity="1" stop-color="#ffffff" offset="0"/>
      <stop id="SvgjsStop4078" stop-opacity="1" stop-color="#fdfefe" offset="0.544"/>
      <stop id="SvgjsStop4079" stop-opacity="1" stop-color="#f6f8f9" offset="0.74"/>
      <stop id="SvgjsStop4080" stop-opacity="1" stop-color="#eaeff2" offset="0.879"/>
      <stop id="SvgjsStop4081" stop-opacity="1" stop-color="#d9e3e8" offset="0.992"/>
      <stop id="SvgjsStop4082" stop-opacity="1" stop-color="#d8e2e7" offset="1"/>
    </radialGradient>
    <radialGradient id="SvgjsRadialGradient4084" cx="126.801" cy="84.835" r="14" gradientUnits="userSpaceOnUse" class="svga-on-canvas-eyesback-gradient-right-0">
      <stop id="SvgjsStop4085" stop-opacity="1" stop-color="#ffffff" offset="0"/>
      <stop id="SvgjsStop4086" stop-opacity="1" stop-color="#fdfefe" offset="0.544"/>
      <stop id="SvgjsStop4087" stop-opacity="1" stop-color="#f6f8f9" offset="0.74"/>
      <stop id="SvgjsStop4088" stop-opacity="1" stop-color="#eaeff2" offset="0.879"/>
      <stop id="SvgjsStop4089" stop-opacity="1" stop-color="#d9e3e8" offset="0.992"/>
      <stop id="SvgjsStop4090" stop-opacity="1" stop-color="#d8e2e7" offset="1"/>
    </radialGradient>
    <radialGradient id="SvgjsRadialGradient4092" cx="127.199" cy="84.835" r="14" gradientTransform="matrix(-1 0 0 1 200 0)" gradientUnits="userSpaceOnUse" class="svga-on-canvas-eyesfront-gradient-left-0">
      <stop id="SvgjsStop4093" stop-opacity="1" stop-color="#ffffff" offset="0"/>
      <stop id="SvgjsStop4094" stop-opacity="1" stop-color="#fdfefe" offset="0.544"/>
      <stop id="SvgjsStop4095" stop-opacity="1" stop-color="#f6f8f9" offset="0.74"/>
      <stop id="SvgjsStop4096" stop-opacity="1" stop-color="#eaeff2" offset="0.879"/>
      <stop id="SvgjsStop4097" stop-opacity="1" stop-color="#d9e3e8" offset="0.992"/>
      <stop id="SvgjsStop4098" stop-opacity="1" stop-color="#d8e2e7" offset="1"/>
    </radialGradient>
    <radialGradient id="SvgjsRadialGradient4102" cx="125.36" cy="83.943" fx="138.934" fy="82.45" r="18.705" gradientTransform="matrix(0.9998 0.0208 0.0131 -0.6281 -51.791 134.0611)" gradientUnits="userSpaceOnUse" class="svga-on-canvas-eyesfront-gradient-left-3">
      <stop id="SvgjsStop4103" stop-opacity="1" stop-color="#e1ac8f" offset="0"/>
      <stop id="SvgjsStop4104" stop-opacity="0.3" stop-color="#e1ac8f" offset="0.7"/>
      <stop id="SvgjsStop4105" stop-opacity="0" stop-color="#f0c7b1" offset="1"/>
    </radialGradient>
    <radialGradient id="SvgjsRadialGradient4107" cx="67.679" cy="106.859" r="29.505" gradientTransform="matrix(1.0322 -0.0541 0.0541 1.0322 -5.894 5.3941)" gradientUnits="userSpaceOnUse" class="svga-on-canvas-eyesfront-gradient-left-4">
      <stop id="SvgjsStop4108" stop-opacity="0" stop-color="#000000" offset="0.95"/>
      <stop id="SvgjsStop4109" stop-opacity="0.2" stop-color="#000000" offset="1"/>
    </radialGradient>
    <radialGradient id="SvgjsRadialGradient4113" cx="126.801" cy="84.835" r="14" gradientUnits="userSpaceOnUse" class="svga-on-canvas-eyesfront-gradient-right-0">
      <stop id="SvgjsStop4114" stop-opacity="1" stop-color="#ffffff" offset="0"/>
      <stop id="SvgjsStop4115" stop-opacity="1" stop-color="#fdfefe" offset="0.544"/>
      <stop id="SvgjsStop4116" stop-opacity="1" stop-color="#f6f8f9" offset="0.74"/>
      <stop id="SvgjsStop4117" stop-opacity="1" stop-color="#eaeff2" offset="0.879"/>
      <stop id="SvgjsStop4118" stop-opacity="1" stop-color="#d9e3e8" offset="0.992"/>
      <stop id="SvgjsStop4119" stop-opacity="1" stop-color="#d8e2e7" offset="1"/>
    </radialGradient>
    <radialGradient id="SvgjsRadialGradient4123" cx="124.961" cy="83.943" fx="138.535" fy="82.45" r="18.705" gradientTransform="matrix(-0.9998 0.0208 -0.0131 -0.6281 250.9922 134.0695)" gradientUnits="userSpaceOnUse" class="svga-on-canvas-eyesfront-gradient-right-3">
      <stop id="SvgjsStop4124" stop-opacity="1" stop-color="#e1ac8f" offset="0"/>
      <stop id="SvgjsStop4125" stop-opacity="0.3" stop-color="#e1ac8f" offset="0.7"/>
      <stop id="SvgjsStop4126" stop-opacity="0" stop-color="#f0c7b1" offset="1"/>
    </radialGradient>
    <radialGradient id="SvgjsRadialGradient4128" cx="68.065" cy="106.876" r="29.506" gradientTransform="matrix(-1.0322 -0.0541 -0.0541 1.0322 205.8938 5.3986)" gradientUnits="userSpaceOnUse" class="svga-on-canvas-eyesfront-gradient-right-4">
      <stop id="SvgjsStop4129" stop-opacity="0" stop-color="#000000" offset="0.95"/>
      <stop id="SvgjsStop4130" stop-opacity="0.2" stop-color="#000000" offset="1"/>
    </radialGradient>
    <linearGradient id="SvgjsLinearGradient4201" x1="100" y1="142" x2="100" y2="139" gradientUnits="userSpaceOnUse" class="svga-on-canvas-mouth-gradient-single-0">
      <stop id="SvgjsStop4202" stop-opacity="1" stop-color="#e8b9a0" offset="0.1"/>
      <stop id="SvgjsStop4203" stop-opacity="1" stop-color="#e1ac8f" offset="1"/>
    </linearGradient>
    <linearGradient id="SvgjsLinearGradient4211" x1="100" y1="170" x2="100" y2="132" gradientUnits="userSpaceOnUse" class="svga-on-canvas-chinshadow-gradient-single-0">
      <stop id="SvgjsStop4212" stop-opacity="0.8" stop-color="#e1ac8f" offset="0"/>
      <stop id="SvgjsStop4213" stop-opacity="1" stop-color="#c27b55" offset="0.7"/>
    </linearGradient>
  </defs>
  <g id="svga-group-wrapper">
    <g id="svga-group-backs-single"/>
    <g id="svga-group-humanwrap-move" transform="matrix(1,0,0,1,0,0)">
      <g id="svga-group-humanwrap" transform="matrix(1,0,0,1,0,0)">
        <g id="svga-group-hair-back-move" transform="matrix(1,0,0,1,0,0)">
          <g id="svga-group-hair-back" transform="matrix(1,0,0,1,0,0)">
            <path id="SvgjsPath4300" d="M38.058 105.866c-4.527-10.708-3.86-15.133-2.654-23.504 -2.078 2.251-3.322 5.27-6.713 8.063 0.263-2.006 4.269-13.639 4.587-14.493 -3.844 3.504-5.969 4.251-7.809 4.972 1.242-1.853 2.066-4.007 3.9-7.933h11.529c0.231 4.281 1.066 9.569 2.312 14.214C42.551 87.622 40.819 90.365 38.058 105.866zM158.91 74.599c-0.047 3.839-1.342 11.034-2.908 15.869 0.805 0.541 1.743 1.173 1.539 1.009 5.951 4.778 6.908 5.603 7.514 13.386 4.324-9.33 0.656-21.307 0.439-30.263H158.91zM165.502 74.599h4.441c-0.582 1.969-1.936 4.788-3.422 6.633C165.963 79.067 165.656 75.986 165.502 74.599z" fill="#1b141c" stroke-width="none" opacity="1"/>
            <path id="SvgjsPath4301" d="M34.21 74.635c-3.399 8.93-3.599 11.16-5.399 15.54 2.85-2.348 4.987-6.981 6.9-8.22 -0.33 3.02-1.9 9.12-0.15 15.8 0.66 2.53 1.5 4.98 2.511 7.37 0.26-3.56 0.79-13.93 4.079-17.08 -2.26 5.95-3.55 13.73-3.55 19.8 -6.41-11.17-4.939-17.3-3.43-25.09 -2.34 2.67-3 6.01-7.49 8.73 1.53-3.23 2.021-7.07 5.19-14.94 -2.63 2.63-4.4 3.68-7.91 4.72 1.318-2.181 2.478-4.946 3.497-7.194h1.082c-0.999 2.154-2.031 4.326-3.289 6.204C28.881 79.245 31.4 77.325 34.21 74.635zM156.002 90.468c0.216 0.149 1.676 1.152 2.332 1.728 2.736 2.402 6.264 4.594 6.018 15.28 4.543-7.848 3.954-19.464 2.539-25.79 2.017-2.169 3.379-4.842 4.074-7.094l-1.203-0.011c-0.582 1.969-1.655 4.34-3.141 6.185 -0.56-2.165-0.865-4.579-1.019-5.966l-0.108-0.2c0.217 8.956 3.115 19.588-0.243 29.516C164.645 96.333 162.841 94.915 156.002 90.468z" fill="#000000" stroke-width="none" opacity="1"/>
          </g>
        </g>
        <g id="svga-group-humanbody-single">
          <path id="SvgjsPath2914" d="M195.417 199.778c-2.196-4.746-8.195-11.779-14.86-13.722 -8.239-2.403-26.837-5.308-33.733-6.923 -5.528-1.296-16.662-11.294-20.564-14.65 -0.7-0.6-1.273-1.839-1.287-2.76 -0.139-10.864 4.195-39.724 4.195-39.724H100 70.833c0 0 4.334 28.859 4.193 39.724 -0.011 0.921-0.587 2.16-1.285 2.76 -3.902 3.356-15.036 13.354-20.564 14.65 -6.897 1.615-25.495 4.619-33.733 7.022 -6.667 1.942-12.664 8.876-14.86 13.622 -3.708 8.008-4.584 22.5-4.584 35h100 100C200 222.278 199.123 207.786 195.417 199.778z" fill="#f0c7b1" stroke-width="none" opacity="1" stroke="none"/>
          <path id="SvgjsPath2915" d="M159.156 184.058c24.342 3.542 34.586 8.708 37.794 50.721H200c0-12.5-0.877-26.992-4.583-35 -2.196-4.746-8.195-11.779-14.86-13.722 -8.239-2.403-26.837-5.308-33.733-6.923 -5.528-1.296-18.242-12.069-21.643-16.35 3.36 4.704 12.791 15.605 21.054 18.46C150.188 182.61 153.48 183.232 159.156 184.058zM53.766 181.244c8.263-2.854 17.693-13.756 21.054-18.46 -3.4 4.28-16.114 15.054-21.643 16.35 -6.896 1.615-25.494 4.619-33.733 7.022 -6.665 1.942-12.664 8.876-14.86 13.622 -3.706 8.008-4.583 22.5-4.583 35h3.05c3.188-41.744 13.475-47.183 37.794-50.721C46.52 183.232 49.813 182.61 53.766 181.244z" fill="#ffe4d6" stroke-width="none" opacity="1" stroke="none"/>
          <path id="SvgjsPath2916" d="M95.646 197.62c0 0-5.074-1.609-7.083-2.379 -10.449-4.009-44.395-6.607-44.395-6.607s35.754 1.419 43.644 2.779c-0.458-4.767-3.017-20.004-3.017-20.004s5.149 16.815 6.409 21.057C91.878 194.734 95.646 197.62 95.646 197.62zM106.445 196.278c-0.089 0.073-0.191 0.168-0.302 0.268C106.256 196.461 106.358 196.372 106.445 196.278zM95.646 197.62c0 0 2.893 2.992 4.347 3.03 1.91 0.051 4.828-2.899 6.151-4.104 -1.265 0.957-4.159 1.391-5.31 1.436C99.504 198.033 95.646 197.62 95.646 197.62zM116.664 190.101c-1.545 0.248-4.386 0.789-4.386 0.789l2.287-14.89c-0.646 3.071-4.474 16.211-8.12 20.278 1.91-1.616 6.158-2.391 8.324-2.704 10.236-1.484 10.232-1.483 41.062-4.94C155.831 188.634 126.76 188.479 116.664 190.101z" fill="#e1ac8f" stroke-width="none" opacity="1" stroke="none"/>
          <path id="SvgjsPath2917" d="M195.417 199.778c-2.196-4.746-8.195-11.779-14.86-13.722 -8.239-2.403-26.837-5.308-33.733-6.923 -5.528-1.296-16.662-11.294-20.564-14.65 -0.7-0.6-1.273-1.839-1.287-2.76 -0.139-10.864 4.195-39.724 4.195-39.724H100 70.833c0 0 4.334 28.859 4.193 39.724 -0.011 0.921-0.587 2.16-1.285 2.76 -3.902 3.356-15.036 13.354-20.564 14.65 -6.897 1.615-25.495 4.619-33.733 7.022 -6.667 1.942-12.664 8.876-14.86 13.622 -3.708 8.008-4.584 22.5-4.584 35h100 100C200 222.278 199.123 207.786 195.417 199.778z" fill="none" stroke="#c27b55" stroke-width="1.5" opacity="1"/>
        </g>
        <g id="svga-group-chinshadow-single">
          <path id="SvgjsPath4210" d="M103.705 170.189c5.292-1.558 13.31-7.012 20.631-12.852 0.352-6.636 1.433-15.887 2.396-23.284 -14.957-2.455-38.464-2.408-53.454 0.081 0.95 7.3 2.01 16.38 2.372 22.974 7.055 5.816 14.789 11.372 20.685 13.087C97.144 170.431 102.896 170.428 103.705 170.189z" fill="url(#SvgjsLinearGradient4211)" opacity="1"/>
        </g>
        <g id="svga-group-clothes-single">
          <path id="SvgjsPath4312" d="M151.119 179.24c-1.169 17.511 0.778 37.348 0.778 37.348 -8.557-3.703-24.938-17.078-29.373-18.164 -4.474 2.39-7.042 2.32-8.15 2.601 -6.551 1.097-16.591 2.793-24.333-1.148 -2.057 0.038-4.301 0.78-6.503 2.433 -14.313 10.724-24.088 11.687-31.542 16.842 1.802-30.226-1.067-29.88-1.743-40.21 -1.313-0.494-1.503-0.686-2.198-1.931 -11.285 3.505-33.28 6.635-44.27 17.565 -9.797 9.743-12.963 25.098-11.355 39.018 60.296-0.651 154.574-1.435 215.17-0.838C208.484 188.103 184.687 187.925 151.119 179.24z" fill="#1d282e" stroke-width="none" opacity="1" stroke="none"/>
          <path id="SvgjsPath4313" d="M122.058 200.77c-2.26-0.563-4.039-0.075-5.735-0.076 1.416-0.26 3.443-0.796 6.202-2.27 3.903 0.958 20.003 13.108 28.935 18.133C141.348 213.958 130.793 203.448 122.058 200.77zM93.658 201.305c-1.216-0.361-2.424-0.823-3.617-1.429 -2.057 0.038-4.301 0.78-6.503 2.433 -11.353 8.505-23.97 13.47-30.718 16.655C86.366 209.735 80.769 201.455 93.658 201.305z" fill="#101a1f" stroke-width="none" opacity="1" stroke="none"/>
          <path id="SvgjsPath4314" d="M49.185 177.937c-35.389 10.12-53.816 14.299-56.599 55.654 -0.052 0.001-0.105 0.002-0.158 0.002 -0.609-5.283-0.528-10.772 0.34-16.083 1.416-8.686 4.938-16.889 11.016-22.935 10.99-10.931 32.985-14.061 44.27-17.565C48.092 177.08 49.149 177.871 49.185 177.937zM151.119 179.24c-0.009 0.138-0.216 0.975-0.224 1.111 27.9 8.159 54.292 10.078 56.23 52.399 0.155 0.001 0.317 0.003 0.473 0.004C208.484 188.103 182.822 184.752 151.119 179.24z" fill="#2d373d" stroke-width="none" opacity="1" stroke="none"/>
          <path id="SvgjsPath4315" d="M208.188 233.074c0 0-30.844 0.408-51.32 0.528 -13.87 0.089-27.734 0.164-41.604 0.223 -89.418 0.32-93.853-0.081-123.482-0.081 0 0-0.512-2.865-0.628-5.683 -1.741-42.366 33.358-44.661 56.99-51.536 0.296-0.086 0.613 0.04 0.769 0.306 0.404 0.69 1.153 1.216 1.216 1.248 0.01 0.362 0.032 0.714 0.055 1.078 -0.876-0.331-1.002-0.491-1.999-1.523 -0.093-0.1-0.197-0.18-0.322-0.136 -2.094 0.759-4.597 1.094-6.8 1.789 4.908 7.375 4.512 8.756 11.027 16.468 0.009 0.097 0.075 1.446 0.087 2.015 -6.347-6.477-7.729-10.213-12.204-18.152 -18.695 5.934-36.75 6.94-45.03 29.829 -2.725 7.542-3.244 16.485-2.368 24.214 65.178-0.707 149.228-1.39 214.963-0.839 -0.768-42.858-23.644-46.791-47.574-51.378 -1.633 4.021-5.957 9.634-8.979 12.803 -0.022-0.649-0.043-1.313-0.055-1.962 1.651-2.145 6.289-8.719 7.391-11.192 -2.355-0.663-4.701-0.836-7.045-1.528 0-0.312 0-0.606 0-0.905C203.73 184.932 208.188 199.237 208.188 233.074zM122.621 198.697c-0.242-0.101-0.483-0.165-0.728-0.197 -2.59 0.632-3.484 1.342-7.833 2.2 -3.443 0.681-12.983 2.123-20.4 0.233 0.039 0.108 0 0 0 0 -1.128-0.623-2.23-0.805-3.57-0.773C98.597 204.991 116.228 201.534 122.621 198.697zM134.848 206.507c-0.298-0.211-0.584-0.419-0.869-0.641 -19.135 9.753-37.45 9.533-56.787 5.223 -1.223-0.318-2.434-0.674-3.635-1.047 -0.374 0.198-0.759 0.398-1.157 0.571C92.217 218.667 116.646 217.646 134.848 206.507z" fill="#000000" stroke-width="none" opacity="1" stroke="none"/>
          <path id="SvgjsPath4316" d="M52.045 219.328c1.863-31.071-2.873-33.865-1.708-46.65 3.715-2.175 7.4-2.84 9.259-5.004 8.871-10.374 7.834-14.805 13.599-17.518 1.146 4.797 1.841 16.058 1.848 16.205 4.352 12.899 7.315 18.411 10.881 23.596 2.071 3.004 6.493 7.614 7.551 10.751 -2.126-1.067-5.81-1.07-9.892 1.774 -6.618 4.571-4.228 5.659-18.017 10.661C60.675 214.903 56.454 217.294 52.045 219.328zM150.818 192.144c-0.004-0.317 0.354-16.318 0.396-17.648 -7.095-2.599-14.646-22.281-24.338-23.615 -2.861 17.897 0.537 11.463-7.986 33.135 -2.105 5.354-2.9 7.377-3.289 16.253 0.218-0.057 0.595-0.158 0.614-0.158l0 0c2.938-0.774 3.918-1.239 5.703-1.721 0.912 0.188 2.43 0.969 2.712 1.193l-0.008-0.012c8.231 4.395 15.909 12.32 27.32 17.195C152.173 212.465 150.818 201.795 150.818 192.144z" fill="#ffffff" stroke-width="none" opacity="1"/>
          <path id="SvgjsPath4317" d="M117.407 199.781c-0.363 0.104-0.75 0.211-1.192 0.328 -0.02 0-0.396 0.102-0.614 0.158 0.389-8.876 1.184-10.899 3.289-16.253 8.523-21.672 5.125-15.237 7.986-33.135 1.941 0.266 3.798 1.415 5.582 3.085 -1.227 9.5-3.84 17-7.646 25.567 4.461-2.522 9.298-5.611 13.672-8.026C129.391 179.69 120.304 187.877 117.407 199.781zM93.475 200.708c-1.059-3.137-5.48-7.747-7.551-10.751 -3.566-5.185-6.529-10.696-10.881-23.596 -0.007-0.147-0.702-11.408-1.848-16.205 -3.646 1.714-3.34 2.955-5.771 7.11 1.958 10.127 5.915 16.565 11.527 24.985 -4.784-3.154-11.462-8.545-18.071-11.847 11.134 8.348 19.139 19.045 26.653 30.108C89.972 199.77 92.066 200.003 93.475 200.708z" fill="#dedbd4" stroke-width="none" opacity="1"/>
          <path id="SvgjsPath4318" d="M86.015 189.896c-5.437-7.907-7.91-15.09-10.862-23.54 0 0-0.482-11.635-1.662-16.356 -5.941 2.726-5.056 6.065-13.979 16.499 -2.523 2.937-5.948 4.17-9.286 6.17 -0.856 9.399 1.783 16.584 1.95 25.104 0.238 6.276 0.213 14.08-0.253 21.732 4.45-2.042 8.725-4.477 13.68-6.258 13.805-5.006 11.434-6.111 18.043-10.674 4.265-2.973 8.018-2.779 10.014-1.64C92.757 197.76 88.146 192.987 86.015 189.896zM70.813 209.965c-8.755 3.447-6.354 1.844-18.373 8.736 3.358-23.819-1.74-34.836-1.74-45.571 3.458-1.789 6.78-2.763 9.33-5.682 9.546-10.978 7.557-13.666 12.843-16.896 0.331 3.15 0.595 6.323 0.761 9.506 0.563 11.263-0.939 3.57 3.492 15.177 6.549 17.153 12.799 18.935 15.762 24.862C84.479 196.433 78.493 207.405 70.813 209.965zM150.93 192.142c-0.006-0.438 0.389-17.628 0.397-17.721 -7.108-2.46-15.008-22.473-24.872-23.66 -0.834 5.126-1.819 16.224-1.819 16.224 -6.725 22.526-8.516 18.624-9.153 33.432 0.003 0 0.713-0.197 0.76-0.2 2.804-0.74 3.87-1.207 5.651-1.716 0.281 0.055 0.739 0.195 1.013 0.316 0.038 0.02 1.7 0.839 1.664 0.851 8.283 4.426 15.938 12.374 27.474 17.26C152.314 212.718 150.93 201.899 150.93 192.142zM144.088 211.398c-7.721-4.629-13.066-10.239-21.258-13.583 -2.219-0.936-5.073 0.968-7.025 2.402 1.077-9.418 0.707-7.281 2.708-12.69 9.219-25.037 6.64-10.866 8.801-36.229 8.454 2.822 16.191 20.952 23.12 23.187 -2.226 26.343 0.761 35.685 1.113 41.66C148.972 214.759 146.59 212.896 144.088 211.398z" fill="#afa9a0" stroke-width="none" opacity="1"/>
        </g>
        <g id="svga-group-head" transform="matrix(1,0,0,1,0,0)">
          <g id="svga-group-ears-left-move" transform="matrix(1,0,0,1,0,0)">
            <g id="svga-group-ears-left" transform="matrix(1,0,0,1,0,0)">
              <path id="SvgjsPath4139" d="M47.001 83.231c-1.376-2.453-5.638-8.48-9.98-7.003 -2.749 0.935-3.293 3.993-3.735 6.693 -0.588 3.591 0.471 10.694 1.389 13.26 0.881 2.467 3.533 7.23 5.264 9.045 2.13 2.225 4.775 9.324 5.194 10.061 0.66 1.162 1.536 2.911 4.122 2.692 2.853-0.244 4.584-1.85 5.856-2.121C58.253 115.192 50.582 89.616 47.001 83.231z" fill="#f0c7b1" stroke="#c27b55" stroke-width="1.5" opacity="1"/>
              <path id="SvgjsPath4140" d="M44.197 98.104c-0.132-0.581 0.007-1.56 0.142-2.504 0.124-0.861 0.24-1.675 0.169-2.251 -0.267-2.154-1.773-6.249-2.757-8.467 -1.132-2.554-2.963-5.77-5.262-6.599 -0.95-0.343-1.575 0.067-1.938 0.484 -0.266 0.305-0.325 0.665-0.238 0.707 0.086 0.042 0.285-0.254 0.572-0.535 0.235-0.229 0.579-0.426 1.051-0.385 -0.19 1.073-1.167 6.883-0.744 10.845 0.333 3.115 1.593 5.442 1.79 5.791 0.029 0.367 0.077 0.726 0.148 1.075 0.929 4.547 4.971 9.717 6.378 11.409 0.259 0.313 0.531 0.497 0.598 0.423 0.066-0.076-0.094-0.387-0.353-0.7 -1.388-1.679-5.391-6.831-6.289-11.218 -0.952-4.656 2.318-11.556 3.048-13.017 0.371 0.685 0.687 1.344 0.93 1.893 0.19 0.431 0.402 0.936 0.619 1.479 -0.429 0.762-3.434 6.32-2.338 10.767 0.406 1.641 2.235 3.755 3.447 4.333 0.667 0.32 0.919 0.797 1.209 1.349 0.336 0.64 0.718 1.365 1.828 1.892 0.225 0.108 0.429 0.151 0.61 0.151 0.313 0 0.551-0.135 0.725-0.293 0.018 0.28 0.017 0.64 0.009 0.97 -0.012 0.431 0.042 0.783 0.137 0.791 0.094 0.008 0.196-0.332 0.207-0.76 0.016-0.526 0.013-1.177-0.072-1.488 -0.248-0.917-1.008-1.953-1.813-3.048C45.221 100.116 44.403 99.003 44.197 98.104zM36.95 94.073c-2.177-7.139 0.656-13.3 1.144-14.28 0.85 0.822 1.6 1.919 2.21 2.995C39.86 83.646 37.041 89.271 36.95 94.073zM46.341 104.515c-1.004-0.475-1.339-1.115-1.666-1.733 -0.293-0.559-0.598-1.136-1.369-1.505 -0.168-0.081-0.352-0.203-0.542-0.343 -2.486-6.263 0.272-9.001 0.963-9.562 0.211 0.766 0.369 1.468 0.439 2.031 0.063 0.517-0.052 1.339-0.167 2.134 -0.142 0.985-0.286 2.004-0.137 2.664 0.226 0.982 1.069 2.131 1.884 3.242 0.723 0.986 1.466 2.003 1.721 2.832C47.359 104.439 47.017 104.836 46.341 104.515z" fill="#c27b55" stroke-width="none" opacity="1"/>
            </g>
          </g>
          <g id="svga-group-ears-right-move" transform="matrix(1,0,0,1,0,0)">
            <g id="svga-group-ears-right" transform="matrix(1,0,0,1,0,0)">
              <path id="SvgjsPath4141" d="M152.736 83.231c1.377-2.453 5.639-8.48 9.98-7.003 2.75 0.935 3.293 3.993 3.736 6.693 0.588 3.591-0.471 10.694-1.389 13.26 -0.881 2.467-3.533 7.23-5.266 9.045 -2.129 2.225-4.775 9.324-5.193 10.061 -0.658 1.162-1.535 2.911-4.121 2.692 -2.854-0.244-4.584-1.85-5.857-2.121C141.484 115.192 149.156 89.616 152.736 83.231z" fill="#f0c7b1" stroke="#c27b55" stroke-width="1.5" opacity="1"/>
              <path id="SvgjsPath4142" d="M153.727 101.196c-0.805 1.096-1.564 2.131-1.813 3.048 -0.086 0.311-0.088 0.962-0.072 1.488 0.012 0.428 0.113 0.768 0.207 0.76s0.148-0.36 0.137-0.791c-0.008-0.331-0.008-0.69 0.01-0.97 0.174 0.158 0.412 0.293 0.725 0.293 0.182 0 0.385-0.043 0.609-0.151 1.109-0.526 1.492-1.252 1.828-1.892 0.289-0.552 0.543-1.028 1.209-1.349 1.213-0.578 3.041-2.692 3.447-4.333 1.096-4.447-1.908-10.005-2.338-10.767 0.217-0.544 0.43-1.049 0.619-1.479 0.244-0.549 0.559-1.208 0.93-1.893 0.73 1.46 4 8.361 3.049 13.017 -0.896 4.387-4.9 9.539-6.289 11.218 -0.258 0.313-0.418 0.624-0.352 0.7 0.066 0.074 0.338-0.109 0.598-0.423 1.406-1.692 5.449-6.862 6.379-11.409 0.07-0.35 0.117-0.708 0.146-1.075 0.197-0.349 1.459-2.676 1.791-5.791 0.422-3.961-0.555-9.772-0.744-10.845 0.473-0.042 0.814 0.156 1.051 0.385 0.287 0.281 0.486 0.577 0.572 0.535 0.086-0.042 0.027-0.402-0.238-0.707 -0.363-0.417-0.988-0.827-1.938-0.484 -2.299 0.83-4.131 4.045-5.262 6.599 -0.984 2.218-2.49 6.313-2.758 8.467 -0.072 0.576 0.045 1.39 0.17 2.251 0.135 0.945 0.273 1.924 0.141 2.504C155.336 99.003 154.518 100.116 153.727 101.196zM159.434 82.787c0.611-1.075 1.361-2.173 2.211-2.995 0.488 0.98 3.32 7.141 1.145 14.28C162.697 89.271 159.879 83.646 159.434 82.787zM152.27 104.275c0.254-0.829 0.998-1.846 1.721-2.832 0.816-1.111 1.658-2.26 1.885-3.242 0.148-0.66 0.004-1.679-0.137-2.664 -0.115-0.795-0.23-1.617-0.166-2.134 0.068-0.563 0.227-1.266 0.438-2.031 0.691 0.561 3.449 3.299 0.965 9.562 -0.191 0.14-0.375 0.263-0.543 0.343 -0.771 0.369-1.074 0.946-1.369 1.505 -0.326 0.618-0.662 1.258-1.666 1.733C152.721 104.836 152.379 104.439 152.27 104.275z" fill="#c27b55" stroke-width="none" opacity="1"/>
            </g>
          </g>
          <g id="svga-group-faceshape-wrap" transform="matrix(1,0,0,1,0,0)">
            <g id="svga-group-faceshape-single">
              <path id="SvgjsPath4207" d="M138.275 134.933c-7.56 7.762-25.273 22.52-34.57 25.257 -0.809 0.238-6.561 0.241-7.37 0.006 -10.402-3.025-26.524-18.002-34.545-25.284 -0.698-0.634-1.876-2.14-2.323-2.97 -6.875-12.77-18.452-54.948-18.462-54.995 -1.3-4.911-1.996-10.066-2.004-15.382C38.949 28.09 66.155 0.919 99.773 0.867c33.621-0.052 60.913 27.033 60.964 60.507 0.009 5.316-0.669 10.473-1.952 15.389 -0.015 0.047-11.729 42.121-18.293 55.052C140.06 132.667 138.942 134.247 138.275 134.933z" fill="#f0c7b1" stroke-width="none" opacity="1"/>
              <path id="SvgjsPath4208" d="M122.923 5.375c19.396 9.496 32.911 30.588 32.944 55.131 0.009 5.316-0.615 10.473-1.796 15.389 -0.013 0.047-10.79 42.121-16.829 55.053 -0.398 0.852-1.426 2.432-2.039 3.117 -6.955 7.762-23.252 22.52-31.805 25.258 -0.744 0.238-6.036 0.24-6.781 0.006 -9.57-3.025-24.402-18.002-31.782-25.285 -0.642-0.633-1.726-2.139-2.137-2.969 -6.325-12.77-16.976-54.948-16.985-54.996 -1.196-4.911-1.836-10.066-1.844-15.382C43.835 36.099 57.351 14.919 76.79 5.389c-22.202 9.066-37.828 30.804-37.789 56.176 0.008 5.316 0.704 10.471 2.004 15.382 0.01 0.047 11.587 42.226 18.462 54.995 0.447 0.83 1.625 2.336 2.323 2.97 8.021 7.282 24.144 22.259 34.545 25.284 0.809 0.235 6.562 0.232 7.37-0.006 9.297-2.737 27.011-17.495 34.57-25.257 0.667-0.686 1.784-2.266 2.217-3.118 6.564-12.932 18.278-55.005 18.293-55.052 1.283-4.916 1.961-10.072 1.952-15.389C160.699 36.059 145.075 14.408 122.923 5.375z" fill="#e8b9a0" stroke-width="none" opacity="1"/>
              <path id="SvgjsPath4209" d="M138.275 134.933c-7.56 7.762-25.273 22.52-34.57 25.257 -0.809 0.238-6.561 0.241-7.37 0.006 -10.402-3.025-26.524-18.002-34.545-25.284 -0.698-0.634-1.876-2.14-2.323-2.97 -6.875-12.77-18.452-54.948-18.462-54.995 -1.3-4.911-1.996-10.066-2.004-15.382C38.949 28.09 66.155 0.919 99.773 0.867c33.621-0.052 60.913 27.033 60.964 60.507 0.009 5.316-0.669 10.473-1.952 15.389 -0.015 0.047-11.729 42.121-18.293 55.052C140.06 132.667 138.942 134.247 138.275 134.933z" fill="none" stroke="#c27b55" stroke-width="1.5" opacity="1"/>
            </g>
          </g>
          <g id="svga-group-mouth-single-move" transform="matrix(1,0,0,1,0,-2)">
            <g id="svga-group-mouth-single" transform="matrix(1,0,0,1,0,0)">
              <path id="SvgjsPath4200" d="M100.2 142.947c-2.832 0.144-3.644-2.753-3.644-2.753s3.931 0.565 6.991-0.353C103.548 139.842 102.692 142.822 100.2 142.947z" fill="url(#SvgjsLinearGradient4201)" opacity="1"/>
              <path id="SvgjsPath4204" d="M100.488 140.76c-1.984 0.1-3.765-0.077-3.877-0.089 -0.138-0.014-0.238-0.136-0.224-0.272 0.015-0.138 0.143-0.233 0.274-0.224 0.041 0.003 4.096 0.405 6.738-0.337 0.131-0.032 0.271 0.041 0.309 0.174s-0.04 0.27-0.173 0.308C102.601 140.582 101.517 140.708 100.488 140.76z" fill="#c27b55" stroke-width="none" opacity="1"/>
              <path id="SvgjsPath4205" d="M82.5 130.299c0 0 12.532 1.486 16.718 1.499 4.553 0.012 19.282-1.499 19.282-1.499 -4.258 3.534-8.943 6.932-19.555 6.999C89.453 137.359 87.021 133.912 82.5 130.299z" fill="#ffffff" stroke-width="none" opacity="1"/>
              <path id="SvgjsPath4206" d="M82.5 130.299c0 0 12.532 1.486 16.718 1.499 4.553 0.012 19.282-1.499 19.282-1.499 -4.258 3.534-8.943 6.932-19.555 6.999C89.453 137.359 87.021 133.912 82.5 130.299z" fill="none" stroke="#c27b55" stroke-width="0.75" opacity="1"/>
            </g>
          </g>
          <g id="svga-group-eyes-left-move" transform="matrix(1,0,0,1,0,0)">
            <g id="svga-group-eyes-left" transform="matrix(1,0,0,1,0,0)">
              <g id="svga-group-eyesback-left">
                <path id="SvgjsPath4075" d="M78.863 89.23c-4.31 0.755-7.656 0.71-10.688-0.204 -3.127-0.943-7.188-4.825-8.596-8.495 3.715-0.277 11.349-0.597 14.89-0.154 4.688 0.586 9.474 2.406 12.305 5.236 -0.016 0.294-0.053 0.583-0.087 0.872C84.401 88.032 81.166 88.826 78.863 89.23z" fill="url(#SvgjsRadialGradient4076)" opacity="1"/>
              </g>
              <g id="svga-group-eyesiriswrapper-left" transform="matrix(1,0,0,1,0.25,0.25)">
                <g id="svga-group-eyesiriscontrol-left" transform="matrix(1,0,0,1,0,0)">
                  <g id="svga-group-eyesiris-left" transform="matrix(1,0,0,1,0,0)">
                    <path id="SvgjsPath4065" d="M79.788 85.588c-0.869 3.192-4.162 5.073-7.361 4.196 -3.197-0.876-5.084-4.178-4.214-7.371 0.869-3.195 4.168-5.076 7.365-4.198C78.772 79.09 80.659 82.392 79.788 85.588z" fill="#3e4442" stroke="#0e1613" stroke-width="0.5" opacity="1"/>
                    <path id="SvgjsPath4066" d="M78.855 85.662c-0.849 2.452-3.407 3.881-5.899 3.199 -2.3-0.631-3.752-2.838-3.563-5.171 0.853-0.067 1.787-0.087 2.756-0.04 -0.01 0.033-0.027 0.062-0.036 0.096 -0.306 1.125 0.407 2.305 1.592 2.63 1.189 0.326 2.401-0.326 2.707-1.451 0.039-0.147 0.06-0.294 0.065-0.439C77.29 84.782 78.088 85.165 78.855 85.662z" fill="#535353" stroke-width="none" opacity="1" stroke="none"/>
                    <path id="SvgjsPath4067" d="M74.813 82.21c-1.203-0.344-2.429 0.342-2.739 1.54 -0.311 1.191 0.412 2.438 1.614 2.783 1.204 0.345 2.43-0.342 2.741-1.534C76.742 83.801 76.016 82.555 74.813 82.21zM75.075 86.442c-0.5 0.156-1.017-0.051-1.154-0.462 -0.133-0.411 0.163-0.867 0.667-1.019 0.503-0.156 1.019 0.051 1.157 0.459C75.881 85.831 75.582 86.287 75.075 86.442z" fill="#000000" stroke-width="none" opacity="0.9"/>
                    <path id="SvgjsPath4068" d="M70.811 87.159c-0.37 0.222-0.922 0.023-1.238-0.447 -0.316-0.466-0.269-1.024 0.102-1.247 0.368-0.219 0.925-0.021 1.239 0.446C71.226 86.378 71.181 86.938 70.811 87.159z" fill="#ffffff" stroke-width="none" opacity="0.6"/>
                    <path id="SvgjsPath4069" d="M78.71 83.74c-0.846 0.507-2.117 0.051-2.837-1.02 -0.72-1.072-0.612-2.352 0.234-2.857 0.844-0.509 2.118-0.053 2.834 1.019C79.66 81.954 79.556 83.232 78.71 83.74z" fill="#ffffff" stroke-width="none" opacity="0.8"/>
                  </g>
                </g>
              </g>
              <g id="svga-group-eyesfront-left">
                <path id="SvgjsPath4100" d="M55.8 85.001c0 13.808 8.06 24.999 18 24.999s18-11.191 18-24.999C91.8 71.192 83.74 60 73.8 60S55.8 71.192 55.8 85.001zM59.58 80.531c3.715-0.277 11.349-0.597 14.89-0.154 4.952 0.619 10.04 2.6 12.788 5.71 -2.289 1.82-5.897 2.705-8.395 3.143 -4.31 0.755-7.656 0.71-10.688-0.204C65.049 88.083 60.988 84.201 59.58 80.531z" fill="#f0c7b1" stroke-width="none" opacity="1"/>
                <path id="SvgjsPath4101" d="M55.942 83.916c0.027 8.284 8.484 14.962 18.902 14.919 10.414-0.047 18.836-6.796 18.813-15.08 -0.027-8.285-8.486-14.963-18.902-14.92C64.339 68.882 55.919 75.631 55.942 83.916zM59.58 80.531c3.715-0.277 11.349-0.597 14.89-0.154 4.952 0.619 10.04 2.6 12.788 5.71 -2.289 1.82-5.897 2.705-8.395 3.143 -4.31 0.755-7.656 0.71-10.688-0.204C65.049 88.083 60.988 84.201 59.58 80.531z" fill="url(#SvgjsRadialGradient4102)" opacity="1"/>
                <path id="SvgjsPath4106" d="M59.58 80.531c3.715-0.277 11.349-0.597 14.89-0.154 4.952 0.619 10.04 2.6 12.788 5.71 -2.289 1.82-5.897 2.705-8.395 3.143 -4.31 0.755-7.656 0.71-10.688-0.204C65.049 88.083 60.988 84.201 59.58 80.531z" fill="url(#SvgjsRadialGradient4107)" opacity="1"/>
                <path id="SvgjsPath4110" d="M67.563 77.096c10.603-0.48 13.849 1.478 18.339 4.3C78.442 77.023 69.03 77.042 67.563 77.096zM59.597 84.153c2.854 5.494 4.797 4.894 7.531 6.058 0.025 0.009-1.51-0.579-2.664-1.196C61.474 87.296 61.108 86.564 59.597 84.153z" fill="#c27b55" stroke-width="none" opacity="1"/>
                <path id="SvgjsPath4111" d="M58.468 79.966c2.857 5.992 4.761 9.926 14.332 10.071 7.283 0.109 11.794-0.564 15.584-3.374 -3.395-5.194-7.754-6.771-13.57-7.358C68.915 78.709 58.468 79.966 58.468 79.966zM60.505 80.827c3.467-0.258 10.59-0.557 13.895-0.144 4.621 0.577 9.369 2.426 11.934 5.328 -2.137 1.699-5.504 2.524-7.834 2.933 -4.021 0.705-7.145 0.663-9.973-0.19C65.608 87.875 61.819 84.252 60.505 80.827z" fill="#000000" stroke-width="none" opacity="1"/>
              </g>
            </g>
          </g>
          <g id="svga-group-eyes-right-move" transform="matrix(1,0,0,1,0,0)">
            <g id="svga-group-eyes-right" transform="matrix(1,0,0,1,0,0)">
              <g id="svga-group-eyesback-right">
                <path id="SvgjsPath4083" d="M120.737 89.23c4.31 0.755 7.656 0.71 10.688-0.204 3.127-0.943 7.188-4.825 8.596-8.495 -3.715-0.277-11.349-0.597-14.89-0.154 -4.688 0.586-9.474 2.406-12.305 5.236 0.016 0.294 0.053 0.583 0.087 0.872C115.199 88.032 118.435 88.826 120.737 89.23z" fill="url(#SvgjsRadialGradient4084)" opacity="1"/>
              </g>
              <g id="svga-group-eyesiriswrapper-right" transform="matrix(1,0,0,1,-0.25,0.25)">
                <g id="svga-group-eyesiriscontrol-right" transform="matrix(1,0,0,1,0,0)">
                  <g id="svga-group-eyesiris-right" transform="matrix(1,0,0,1,0,0)">
                    <path id="SvgjsPath4070" d="M131.788 85.588c-0.869 3.192-4.162 5.073-7.362 4.196 -3.196-0.876-5.084-4.178-4.214-7.371 0.869-3.195 4.169-5.076 7.365-4.198C130.772 79.09 132.658 82.392 131.788 85.588z" fill="#3e4442" stroke="#0e1613" stroke-width="0.5" opacity="1"/>
                    <path id="SvgjsPath4071" d="M130.855 85.662c-0.849 2.452-3.408 3.881-5.899 3.199 -2.3-0.631-3.753-2.838-3.563-5.171 0.854-0.067 1.787-0.087 2.756-0.04 -0.01 0.033-0.027 0.062-0.036 0.096 -0.306 1.125 0.407 2.305 1.593 2.63 1.189 0.326 2.401-0.326 2.707-1.451 0.038-0.147 0.06-0.294 0.065-0.439C129.29 84.782 130.089 85.165 130.855 85.662z" fill="#535353" stroke-width="none" opacity="1" stroke="none"/>
                    <path id="SvgjsPath4072" d="M126.813 82.21c-1.202-0.344-2.429 0.342-2.738 1.54 -0.312 1.191 0.412 2.438 1.613 2.783 1.204 0.345 2.431-0.342 2.742-1.534C128.741 83.801 128.016 82.555 126.813 82.21zM127.075 86.442c-0.5 0.156-1.018-0.051-1.154-0.462 -0.133-0.411 0.163-0.867 0.667-1.019 0.503-0.156 1.019 0.051 1.157 0.459C127.881 85.831 127.582 86.287 127.075 86.442z" fill="#000000" stroke-width="none" opacity="0.9"/>
                    <path id="SvgjsPath4073" d="M122.812 87.159c-0.37 0.222-0.923 0.023-1.238-0.447 -0.316-0.466-0.27-1.024 0.102-1.247 0.367-0.219 0.926-0.021 1.239 0.446C123.227 86.378 123.181 86.938 122.812 87.159z" fill="#ffffff" stroke-width="none" opacity="0.6"/>
                    <path id="SvgjsPath4074" d="M130.71 83.74c-0.846 0.507-2.116 0.051-2.837-1.02 -0.72-1.072-0.612-2.352 0.234-2.857 0.845-0.509 2.117-0.053 2.834 1.019C131.66 81.954 131.557 83.232 130.71 83.74z" fill="#ffffff" stroke-width="none" opacity="0.8"/>
                  </g>
                </g>
              </g>
              <g id="svga-group-eyesfront-right">
                <path id="SvgjsPath4121" d="M125.801 60c-9.94 0-18 11.193-18 25.001 0 13.808 8.06 24.999 18 24.999s18-11.191 18-24.999C143.801 71.192 135.741 60 125.801 60zM131.425 89.026c-3.031 0.914-6.378 0.959-10.688 0.204 -2.497-0.438-6.105-1.323-8.395-3.143 2.748-3.11 7.836-5.091 12.788-5.71 3.541-0.443 11.175-0.123 14.89 0.154C138.612 84.201 134.552 88.083 131.425 89.026z" fill="#f0c7b1" stroke-width="none" opacity="1"/>
                <path id="SvgjsPath4122" d="M124.846 68.835c-10.416-0.043-18.875 6.635-18.902 14.92 -0.023 8.284 8.398 15.033 18.813 15.08 10.418 0.043 18.875-6.635 18.902-14.919C143.682 75.631 135.262 68.882 124.846 68.835zM131.425 89.026c-3.031 0.914-6.378 0.959-10.688 0.204 -2.497-0.438-6.105-1.323-8.395-3.143 2.748-3.11 7.836-5.091 12.788-5.71 3.541-0.443 11.175-0.123 14.89 0.154C138.612 84.201 134.552 88.083 131.425 89.026z" fill="url(#SvgjsRadialGradient4123)" opacity="1"/>
                <path id="SvgjsPath4127" d="M140.021 80.531c-3.715-0.277-11.349-0.597-14.89-0.154 -4.952 0.619-10.04 2.6-12.788 5.71 2.289 1.82 5.897 2.705 8.395 3.143 4.31 0.755 7.656 0.71 10.688-0.204C134.552 88.083 138.612 84.201 140.021 80.531z" fill="url(#SvgjsRadialGradient4128)" opacity="1"/>
                <path id="SvgjsPath4131" d="M113.697 81.396c4.491-2.822 7.736-4.781 18.34-4.3C130.57 77.042 121.158 77.023 113.697 81.396zM135.137 89.016c-1.154 0.617-2.689 1.205-2.664 1.196 2.734-1.164 4.678-0.564 7.531-6.058C138.492 86.564 138.127 87.296 135.137 89.016z" fill="#c27b55" stroke-width="none" opacity="1"/>
                <path id="SvgjsPath4132" d="M124.787 79.305c-5.816 0.587-10.176 2.165-13.57 7.358 3.79 2.809 8.301 3.483 15.584 3.374 9.57-0.145 11.474-4.079 14.331-10.071C141.132 79.966 130.686 78.709 124.787 79.305zM131.074 88.754c-2.828 0.853-5.951 0.895-9.973 0.19 -2.33-0.409-5.697-1.234-7.834-2.933 2.564-2.902 7.313-4.751 11.934-5.328 3.305-0.413 10.428-0.114 13.895 0.144C137.781 84.252 133.992 87.875 131.074 88.754z" fill="#000000" stroke-width="none" opacity="1"/>
              </g>
            </g>
          </g>
          <g id="svga-group-facehighlight-single">
            <path id="SvgjsPath2906" d="M141 113.974c0.035 22.622-18.292 40.994-40.938 41.025 -22.642 0.037-41.028-18.273-41.063-40.9 -0.035-22.62 18.292-41.064 40.937-41.1C122.579 72.964 140.967 91.349 141 113.974z" fill="url(#SvgjsRadialGradient2907)" opacity="1"/>
            <path id="SvgjsPath2910" d="M137.5 53.999c0 20.711-16.789 37.5-37.499 37.5 -20.711 0-37.501-16.789-37.501-37.5s16.79-37.5 37.501-37.5C120.711 16.499 137.5 33.288 137.5 53.999z" fill="url(#SvgjsRadialGradient2911)" opacity="1"/>
          </g>
          <g id="svga-group-eyebrows-left-move" transform="matrix(1,0,0,1,0,0)">
            <g id="svga-group-eyebrows-left-rotate" transform="matrix(1,0,0,1,0,0)">
              <g id="svga-group-eyebrows-left" transform="matrix(1,0,0,1,0,0)">
                <path id="SvgjsPath4133" d="M74.799 71.28c-4.425-0.475-21.252 3.714-21.252 3.714s16.789-6.74 23.757-5.667c5.188 0.798 14.397 5.077 12.706 7.339C88.649 78.487 84.408 72.312 74.799 71.28z" fill="#2a232b" stroke-width="none" opacity="1"/>
              </g>
            </g>
          </g>
          <g id="svga-group-eyebrows-right-move" transform="matrix(1,0,0,1,0,0)">
            <g id="svga-group-eyebrows-right-rotate" transform="matrix(1,0,0,1,0,0)">
              <g id="svga-group-eyebrows-right" transform="matrix(1,0,0,1,0,0)">
                <path id="SvgjsPath4134" d="M109.731 76.398c-1.713-2.292 7.592-6.31 13.546-6.804 7.117-0.59 22.914 4.085 22.914 4.085s-15.9-2.628-20.377-2.106C115.998 72.718 111.11 78.243 109.731 76.398z" fill="#2a232b" stroke-width="none" opacity="1"/>
              </g>
            </g>
          </g>
          <g id="svga-group-nose-single-move" transform="matrix(1,0,0,1,0.5,0)">
            <g id="svga-group-nose-single" transform="matrix(1,0,0,1,0,0)">
              <path id="SvgjsPath3242" d="M91.115 115.499c-0.878 2.064 5.934 4.292 8.519 4.429 2.8 0.147 10.646-2.9 9.316-4.992 -1.399-2.195-6.643-0.286-8.906-0.286C97.792 114.649 92.291 112.745 91.115 115.499z" fill="#e1ac8f" stroke-width="none" opacity="1"/>
              <path id="SvgjsPath3243" d="M101.857 117.058c-0.23-0.759 1.876-1.584 2.657-1.694 1.101-0.16 3.36 0.802 3.158 1.592 -0.184 0.698-2.148-0.533-2.86-0.429C104.078 116.634 102.075 117.769 101.857 117.058zM94.974 116.811c0.968 0 2.404 0.623 2.668 0.074 0.315-0.655-2.139-1.461-2.86-1.372 -0.596 0.07-2.733 1.315-2.439 1.839C92.617 117.833 93.698 116.811 94.974 116.811z" fill="#c27b55" stroke-width="none" opacity="1"/>
              <path id="SvgjsPath3244" d="M100.089 111.999c0.607 0 1.742-0.74 1.792-2.23 0.201-6.008-0.956-23.833-1.792-23.77 -0.78 0.059-2.267 17.637-1.948 23.77C98.22 111.271 99.404 111.999 100.089 111.999z" fill="#fff5ef" stroke-width="none" opacity="0.2"/>
            </g>
          </g>
          <g id="svga-group-beardwrap" transform="matrix(1,0,0,1,0,0)">
            <g id="svga-group-beard-single-move" transform="matrix(1,0,0,1,0,0)">
              <g id="svga-group-beard-single" transform="matrix(1,0,0,1,0,0)">
                <path id="SvgjsPath4218" d="M100,18.13L100,18.13L100,18.13L100,18.13z" fill="#2a232b" stroke-width="none" opacity="1"/>
              </g>
            </g>
          </g>
          <g id="svga-group-mustache-single-move" transform="matrix(1,0,0,1,0,0)">
            <g id="svga-group-mustache-single" transform="matrix(1,0,0,1,0,0)">
              <path id="SvgjsPath3971" d="M100,18.13L100,18.13L100,18.13L100,18.13z" fill="#2a232b" stroke-width="none" opacity="1"/>
            </g>
          </g>
          <g id="svga-group-hair-front" transform="matrix(1,0,0,1,0,0)">
            <path id="SvgjsPath4303" d="M57.802 28.734c9.237-8.79 44.55-0.761 55.197 0.239 10.142 0.782 23.526-30.339 43.604 49.479 -0.045 3.839-1.289 10.633-2.796 15.468 -0.145-0.101-0.286-0.208-0.431-0.306 0 0 0.518 3.257-6.059 14.39 0.349-8.073-1.212-13.893-2.492-21.414 -15.709-19.987-30.389-24.674-41.56-28.155 7.5 8.755 14.919 16.79 18.165 25.564 -13.646-9.576-32.408-28.884-32.408-28.884S90.426 59.819 116.709 84C105.766 81.32 85.363 70.32 71.072 49.048c-2.746 4.5 12.4 30.794 12.827 31.801 -7.663-6.086-18.079-14.636-20.755-24.62 0 0-1.571 4.043-2.662 8.635 -2.878 12.162-2.904 27.281-3.429 31.125 -1.665-8.721-1.925-18.482-1.922-18.355 -3.905 17.893-0.419 30.394-0.352 34.724 -5.198-10.435-10.604-22.897-12.177-34.534C42.604 77.824 54.221 27.134 57.802 28.734z" fill="#2a232b" stroke-width="none" opacity="0.1"/>
            <path id="SvgjsPath4304" d="M29.382 67.866c0.08-5.39 1.12-13.92 2.921-18.78 -3.28 3.39-7.41 7.39-10.78 9.5 4.46-3.86 5.841-7.16 15.921-28.3 6.189-12.98 10.287-26.75 22.378-28.37 4.079-0.56 8.05 0.99 11.779 2.59 9.61-8.79 21.59-12.331 32.671-11.331 33.879 2.51 42.916 24.391 61.036 28.771 -2.84 0.83-7.616-0.468-10.336-1.748 3.75 5.06 2.422 4.531 10.692 12.801 3.369 3.34 6.482 7.444 10.543 9.854 -5.449-0.681-8.313-4.834-16.282-9.104 1.149 1.84 5.249 8.094 11.929 14.494 2.87 2.74 7.6 6.584 10.898 8.914 -2.409-0.96-9.488-3.726-15.607-9.152 3.169 4.531 12.262 12.94 8.145 29.881 -0.832-7.406 0.002-16.415-7.049-20.895 0.784 3.301 3.814 10.222 1.604 17.708H158.91c-0.047 3.839-1.342 10.934-2.908 15.769 -0.151-0.101-0.297-0.208-0.449-0.306 0 0-0.503 3.257-7.344 14.39 0.363-8.073-0.222-13.893-1.553-21.414 -16.346-19.987-31.619-24.674-43.241-28.155 7.804 8.755 13.813 18.837 17.192 27.612 -11.046-11.66-33.834-29.767-33.834-29.767s0.364 4.866 27.712 29.046c-9.449-5.795-29.698-15.006-44.566-36.278 -2.858 4.5 10.819 30.794 11.264 31.801 -7.974-6.086-14.646-16.636-17.435-26.62 0 0-3.716 6.043-4.847 10.635 -2.995 12.162-1.984 22.281-2.528 26.125 -1.732-8.721-3.042-13.482-3.039-13.355 -4.066 17.893 0.604 32.394 0.672 36.724C48.6 100.471 41.934 85.908 40.297 74.271H28.7C29.369 69.944 28.873 69.932 29.382 67.866z" fill="#2a232b" stroke-width="none" opacity="1"/>
            <path id="SvgjsPath4305" d="M22.764 37.286c3.811-0.17 5.876 0.099 10.356-0.261 0.67-1.53 2.738-5.55 3.438-7.07C33.059 33.055 25.794 36.976 22.764 37.286z" fill="#0c080c" stroke-width="none" opacity="1"/>
            <path id="SvgjsPath4306" d="M120 6c16.027-2.29 30.9 14.922 44.42 16.002 -2.873 0.59-7.386-1.022-9.989-2.247 3.75 5.06 2.74 5.09 11.011 13.36 3.369 3.34 5.77 6.92 9.83 9.33 -4.352-0.722-7.869-4.955-15.656-9.179C150.467 19.744 136.495 7.833 120 6zM63.748 50.777c0 0-3.716 6.043-4.847 10.635 -2.995 12.162-1.984 22.281-2.528 26.125 -1.732-8.721-3.042-13.482-3.039-13.355 -0.098 0.428-0.185 0.851-0.272 1.275 -3.569 17.303 0.878 31.222 0.944 35.449C48.6 100.471 41.934 86.008 40.297 74.372H28.7c0.669-4.328 0.173-4.44 0.682-6.505 0.08-5.39 1.12-13.92 2.921-18.78 -3.28 3.39-7.41 7.39-10.78 9.5 4.384-3.794 5.799-7.06 15.417-27.242C39.903 26.734 43.257 22.367 47 18c-7 9-11 20-12 31 2-6 8.079-10.064 12.204-14.833C42.858 40.958 39.721 47.555 38 57c1.263-2.166 3.05-3.376 4.352-5 -2.063 6.007-1.46 9.452-0.544 14.033C42.71 58.906 44.209 47.331 48 41c0 11-3.411 21.569 1.005 33.277 -0.041-8.667 3.242-16.555 5.526-22.481 -0.454 2.152-0.105 7.455 0.016 9.648 1.278-6.668 2.146-13.21 6.033-18.583 -1.734-9.968-4.468-20.679-0.784-23.305 -5.987 10.398 12.487 19.472 11.935 19.03 10.333 5.74 16.882 6.44 22.24 7.796 -3.495-2.813-5.311-6.313-8.84-9.096 10 3.45 23.963 14.121 31.086 18.481 1.902 2.784 2.074 3.492 2.641 4.833 -4.081-1.928-9.18-3.742-15.442-5.618 14.409 16.165 11.53 12.905 17.192 27.612 -9.815-10.361-9.8-10.658-32.423-28.645 2.733 3.566 9.971 13.486 26.301 27.924 -3.69-2.263-31.135-17.061-44.566-36.278 -0.641 5.223 0.076 8.654 11.264 31.801C79.136 76.769 71.168 69.641 63.748 50.777zM118.857 60.601c8.503 4.017 17.955 10.501 27.799 22.537 1.331 7.521 1.916 13.341 1.553 21.414 1.527-2.485 2.724-4.558 3.684-6.309 3.342-6.095 3.66-8.081 3.66-8.081 0.152 0.098 0.298 0.205 0.449 0.306 1.566-4.835 2.861-11.629 2.908-15.468h10.733c2.212-7.485-1.049-15.243-1.833-18.544 7.051 4.48 7.24 12.74 7.57 20.16 3.37-16.67-5.95-24.64-8.9-29.41 6.17 4.79 13.061 8.53 15.471 9.49 -3.301-2.33-7.41-5.47-10.28-8.21 -3.639-3.486-6.618-7.18-8.769-10.124C158.216 35.96 154.726 32.363 150 30c7.927 5.284 10.424 13.671 12.956 21.745 -1.214-1.753-3.177-2.936-4.23-4.512 1.251 3.286 3.089 6.694 2.274 10.767 -5-7-7-17-15-23 8.079 8.079 8.639 29.358 8.605 33.148C146.453 29.071 111.941-7.698 77 6c35-11 65 26 69 58 -7-8-9-18-19-23 5 5 8 13 11 19 -11-13-20-26-35-35 7 8 16 15 21 25 3 3 4 7 6 10 -7-7-15.796-14.161-24.869-16.816C115.319 51.958 118.141 58.904 118.857 60.601z" fill="#1b141c" stroke-width="none" opacity="1"/>
            <path id="SvgjsPath4307" d="M117.766 5.829c8.292-0.029 31.523 6.494 43.094 29.199C148.464 17.819 135.714 9.892 117.766 5.829zM137.845 38.708C124.893 11.58 100.687 3.229 87.714 4.067 97.087 3.465 123.506 13.067 137.845 38.708zM73.181 14.559C72.572 9.286 65.426 3.87 57.615 6.905c-0.671 0.261-1.261 0.737-1.929 0.979C64.214 4.803 72.008 9.383 73.181 14.559zM70.78 17.966c-2.271-3.246-5.344-6.239-9.309-7.198C49.418 7.854 40.4 25.7 38.314 33.687c0.263-1.003 10.596-25.068 23.497-22.066C65.532 12.47 68.414 15.113 70.78 17.966zM69.574 20.271c-1.129 13.933 30.875 23.767 37.895 29.705C94.975 39.407 69.766 32.882 69.574 20.271zM124.793 51.149c-2.651-4.433-13.662-22.247-31.359-32.846 -10.977-6.574-15.238-2.604-17.326-1.636C90.316 10.093 116.346 39.44 124.793 51.149z" fill="#0c080c" stroke-width="none" opacity="1"/>
            <path id="SvgjsPath4308" d="M154.605 30.218c0 0-12.998-14.019-32.379-20.881C136.712 12.957 145.32 20.083 154.605 30.218zM122.58 10.545c8.373 2.862 22.848 18.934 24.674 22.069C142.53 24.503 131.43 12.888 122.58 10.545zM96.203 7.936c16.427 3.769 31.383 22.259 31.383 22.259C120.613 19.403 109.143 9.004 96.203 7.936zM82.027 17.556c7.952 2.046 25.885 16.866 26.805 18.162C106.244 32.075 90.721 18.78 82.027 17.556zM76.314 19.112c8.738 1.131 15.985 8.446 17.066 9.925C88.838 22.824 84.179 19.303 76.314 19.112zM75.442 21.879c8.537 8.845 21.252 11.429 25.864 17.449C94.935 31.012 83.235 29.092 75.442 21.879zM85.865 42.83c-11.211-6.084-18.966-11.368-20.703-12.851 -1.836-1.565-6.52-5.33-3.095-9.151 -2.542 1.67-2.01 5.382 1.396 8.925C67.167 33.607 84.863 42.83 85.865 42.83 84.895 42.303 85.864 42.83 85.865 42.83zM93.761 46.37c-8.66-2.08-17.527-5.034-24.96-10.046 -5.172-3.487-12.865-11.624-8.86-16.402 1.146-1.371 3.559-2.013 5.297-1.993 -1.732-0.021-3.829 0.4-5.168 1.556 -3.872 3.344 0.268 11.895 6.736 16.54C74.633 41.646 84.462 44.373 93.761 46.37zM94.196 11.99c1.66 0.332 3.306 0.552 4.901 1.161 13.539 5.162 26.441 21.077 26.441 21.077C118.564 23.811 106.82 13.181 94.196 11.99zM95.438 16.421c15.557 5.988 32.561 25.947 33.561 26.663C121.432 31.611 108.664 19.74 95.438 16.421zM56.114 18.851c-10.322-2.044-15.184 15.403-15.779 16.404C43.838 28.076 49.19 18.188 56.114 18.851zM56.22 30.75c-8.761 8.218-6.864 18.622-6.717 23.478C49.338 45.406 51.606 36.237 56.22 30.75z" fill="#3a353a" stroke-width="none" opacity="1"/>
            <path id="SvgjsPath4309" d="M31.491 50.465c-3.98 10.99-2.87 22.38-2.931 23.38 -0.079 0.171-0.238 0.529-0.317 0.703 1.05-0.224 0.815-0.006 1.079-0.006 2.013-4.338 4.543-10.008 11.318-19.136 -4.29 5.17-8.16 10.6-11.21 16.62 1.811-11.55 9.17-21.13 10.021-22.35 -4.04 5.13-7.82 10.61-9.87 17.39 0.08-5.39 1.319-13.72 3.12-18.58 -3.28 3.39-7.41 7.69-10.78 9.8 4.46-3.86 6.04-6.86 16.12-28 6.189-12.98 9.689-26.55 21.78-28.17 4.079-0.56 8.05 0.79 11.779 2.39 9.61-8.79 21.59-11.83 32.671-10.83 33.879 2.51 42.409 23.86 60.529 28.24 -2.84 0.83-7.65-0.88-10.37-2.16 3.75 5.06 2.74 5.09 11.011 13.36 3.369 3.34 5.77 6.92 9.83 9.33 -4.4-0.73-7.94-5.05-15.91-9.32 1.149 1.84 5.629 8.96 12.31 15.36 2.87 2.74 6.979 5.88 10.28 8.21 -2.41-0.96-9.301-4.7-15.471-9.49 2.95 4.77 12.271 12.74 8.9 29.41 -0.33-7.42-0.52-15.68-7.57-20.16 0.784 3.301 4.045 11.059 1.833 18.544h0.317 0.875c2.142-6.938-0.861-13.751-2.085-17.224 6.409 5.8 6.31 18.31 5.67 24.379 2.521-6.85 3.479-13.449 1.46-20.489 -1.13-3.96-3.5-7.46-5.96-10.71 -0.17-0.23-0.351-0.46-0.521-0.69 4.69 3.76 10.521 7.08 16.11 8.14 0 0-17.069-12.22-24.31-23.26 1.8 1.29 4.25 3.34 6.64 4.95 3.45 2.35 6.17 3.54 10.14 3.04 -4.72-2.17-7.83-6.79-11.149-10.25 -7.37-7.74-4.36-3.42-10.56-11.66 5 2.04 7.649 1.84 10.67 0.75 -1.701-0.4-3.48-0.87-5.08-1.49 -13.41-5.19-28.451-28.98-60.24-29.1 -10.9-0.05-22.641 4.17-30.32 12.49 -1.33-0.61-2.68-1.13-4.04-1.57 -17.26-5.55-23.17 10.32-30.74 26.41 -2.88 2.39-8.47 7.94-16.029 8.68 3.67 0.26 7.54 0.58 12.06 0.2 -6.62 15.06-6.979 16.7-15.57 23.75C24.331 58.795 26.661 55.875 31.491 50.465zM35.961 30.755c-0.7 1.52-2.37 4.34-3.04 5.87 -4.48 0.36-5.55 0.39-9.36 0.56C26.591 36.875 32.461 33.855 35.961 30.755zM39.938 70.539c0 1.85 2.122 11.566 4.412 17.556 -1.18-6.81-1.41-13.92-1.229-20.82 0.18-7.13 1.3-14.12 3.34-20.95 -4.72 19.62-2.17 45.13 7.229 63.271 -1.909-9.51-3.02-19.14-1.81-28.82 0.28-2.24 0.66-4.46 1.16-6.66 0 0-0.92-8.37 1.49-22.32 -1.641 11.57-0.5 22.83 1.76 34.21 -0.22-8.28 0.2-16.63 2.32-24.67 1.159-4.4 2.439-5.78 4.5-10.88 -1.131-4.1-1.711-8.32-2.11-12.54 1.93 12.83 5.399 20.15 12.35 30.55 2.061 3.07 4.2 5.89 7.16 8.15 -2.08-3.64-8.96-19.1-9.37-20.14 -1.37-3.47-2.2-7.06-1.569-10.78 -2.04-3.2-3.83-6.56-5.46-9.99 5.229 9.7 12.039 18.21 20.34 25.49 4.29 3.77 8.859 7.25 13.56 10.48 4.841 3.33 10.04 5.93 15.03 8.99 -6.52-5.46-12.99-11.4-17.41-16.21 -2.68-2.92-5.81-5.87-7.97-9.21 -2.15-3.33-3.08-7.14-4.78-10.7 1.69 2.91 2.9 6.02 4.15 8.13 0.31 0.52 11.819 9.16 16.89 13.98 6.44 6.11 9.75 8.16 15.851 14.6 -2.791-6.18-3.521-9.17-11.131-19.26 -5.02-6.66-7.09-7.03-13.779-17.45 1.729 2.37 3.479 4.67 5.47 6.83 1.04 1.13 2.1 2.22 3.17 3.32 6.21 1.86 11.96 2.92 21.659 8.94 16.671 10.35 20.201 18.04 26.971 24.64 -1.2-4.17-4.88-11.15-8.18-16.9 -3.01-5.25-6.32-10.68-9.99-15.14 4.641 4.16 8.07 9.47 11.13 14.84 3.22 5.68 6.81 11.79 7.899 18.31 -2.109-1.62-4.01-3.43-5.869-5.34 1.119 6.33 1.73 12.93 1.439 19.36 9.016-14.682 12.535-35.524 9.849-48.787 6.943 27.12-5.726 44.18-11.658 54.876 0.46-6.54-0.2-21.98-0.71-26.4 -2.21-2.759-17.912-19.588-41.29-27.14 4.12 4.12 7.729 8.4 10.58 13.51 2.61 4.7 5.1 9.62 6.6 15.03 -5.3-5.3-11.079-10.12-16.739-15.01 -5.82-5.03-11.44-10.28-17.24-15.33 1.569 2.35 3.42 4.57 14.779 15.65 5.99 5.85 15.33 14.29 15.53 14.51 -1-0.38-17.76-9.09-25.62-15.05 -8.22-6.23-17.02-14.11-22.58-22.81 -0.489 6.01 3.061 12.45 4.9 16.33 2 4.21 4.979 11.6 8.229 16.96 -5.04-2.96-8.85-7.15-11.92-12.14 -3.189-5.18-6.06-10.19-7.84-16.03 -1.5 2.98-3.14 5.96-3.84 9.25 -0.74 3.46-1.229 6.95-1.57 10.47 -0.67 7.07-1.43 14.33-1.02 21.44 -1.74-5.47-3.07-10.94-3.64-16.67 -1.7 9.52-0.091 23.48 1.779 37.28 -5.149-7.021-9.5-17.16-11.99-26.3C41.511 81.005 39.658 74.499 39.938 70.539z" fill="#000000" stroke-width="none" opacity="1"/>
          </g>
          <g id="svga-group-glasses-single-move" transform="matrix(1,0,0,1,0,0)">
            <g id="svga-group-glasses-single" transform="matrix(1,0,0,1,0,0)">
              <path id="SvgjsPath4214" d="M143.62 100.1c-2.36 2.2-6.23 3.04-13.56 3.04 -9.78 0-16.18-1.09-20.41-9.51 -3.29-6.54-4.62-13.56-3.02-15.98 2.21-3.34 8.57-5.61 15.67-6.28C134.63 77.23 143.29 88.98 143.62 100.1zM72.01 71.17c-7.64 0.21-15.09 2.35-18.27 7.05 -2.18 3.21-1.69 12.55-0.22 16.94 2 5.99 5.07 7.98 16.42 7.98 9.78 0 16.18-1.09 20.41-9.51 0.42-0.84 0.81-1.69 1.17-2.54C88.29 82.95 81.16 75.43 72.01 71.17z" fill="#ffffff" stroke-width="none" opacity="0.2"/>
              <path id="SvgjsPath4215" d="M146.48 95.17c-0.71 2.12-1.56 3.73-2.86 4.94 -0.33-11.12-8.99-22.87-21.33-28.74 9.37-0.89 19.99 0.99 23.97 6.86C148.44 81.44 147.95 90.77 146.48 95.17zM93.38 77.65c-2.79-4.23-12.22-6.73-21.37-6.47 9.16 4.25 16.28 11.77 19.52 19.92C93.94 85.36 94.77 79.76 93.38 77.65z" fill="#ffffff" stroke-width="none" opacity="0.4"/>
              <path id="SvgjsPath4216" d="M151.79 73.61c-10.18-5.46-36.14-7.01-45.5 0.15 -0.8 0.47-4.23-0.53-6.29-0.53 -1.95 0-5.42 1.05-6.29 0.53 -9.36-7.16-35.32-5.61-45.5-0.15 -1.46 0.79-1.62 4.51-0.35 5.08 0.91 0.41 1.51 0.98 1.46 1.98C49 86.29 50.55 93.59 51.23 95.6c0.87 2.59 2.44 7.41 9.29 8.6 5.83 1.01 16.43 1.48 21.94-0.17 9.99-2.98 14.24-18.04 14.42-23.17l0.01 0.02c0.4-1.8 5.82-1.8 6.23 0l0.01-0.02c0.17 5.13 4.43 20.19 14.42 23.17 5.51 1.65 16.11 1.18 21.94 0.17 6.85-1.19 8.42-6.01 9.29-8.6 0.68-2.02 2.23-9.31 1.92-14.93 -0.05-1 0.56-1.57 1.46-1.98C153.41 78.12 153.25 74.4 151.79 73.61zM81.41 101.36c-5.06 1.51-14.32 1.61-19.71 0.67 -4.54-0.79-6.44-3.26-7.7-7.03 -1.48-4.4-1.87-13.51 0.16-16.5 6.76-9.98 33.87-8.05 38.8-0.58C95.16 81.27 90.89 98.53 81.41 101.36zM146 95.01c-1.26 3.77-3.17 6.24-7.7 7.03 -5.39 0.94-14.65 0.84-19.71-0.67 -9.48-2.83-13.75-20.09-11.55-23.44 4.93-7.47 32.04-9.4 38.8 0.58C147.87 81.49 147.48 90.61 146 95.01z" fill="#26120b" stroke-width="none" opacity="1"/>
              <path id="SvgjsPath4217" d="M118.58 101.32c2.79 0.83 6.86 1.24 10.85 1.27 -12.54 1.22-15.39-3.4-17.12-5.16 -3.52-3.59-5.69-8.95-5.85-16.65C106.49 86.86 110.76 98.99 118.58 101.32zM93.69 73.72c-9.36-7.16-35.32-5.62-45.5-0.15C71.43 67.05 84.93 70.42 93.69 73.72zM61.68 102c-4.54-0.79-6.44-3.26-7.7-7.03 -1.32-3.93-1.77-11.62-0.4-15.35 -1.83 4.22-1.12 12.39 0.26 16.5 1.6 4.8 4.54 7.18 17.34 6.46C67.71 102.65 64.25 102.44 61.68 102zM152.97 76.3c-0.04-1.13-0.45-2.32-1.2-2.73 -9.98-5.36-35.14-6.94-44.93-0.25C120 68.05 138.97 67.31 152.97 76.3z" fill="#351d15" stroke-width="none" opacity="1"/>
            </g>
          </g>
        </g>
      </g>
    </g>
    <rect id="SvgjsRect1057" width="200" height="15" x="0" y="185" fill="#ecf0f1" opacity="0.5" style="display: none;"/>
    <text id="SvgjsText1058" font-family="Roboto, Helvetica, Arial, sans-serif" font-size="10px" text-anchor="start" font-weight="400" anchor="start" fill="#333333" x="57.650840759277344" y="182.42838335037231" style="display: none;">
      <tspan id="SvgjsTspan1059" dy="13" x="57.650840759277344">Created on face.co</tspan>
    </text>
  </g>
</svg>
